<?xml version="1.0" encoding="UTF-8"?>
<svg xmlns="http://www.w3.org/2000/svg" xmlns:xlink="http://www.w3.org/1999/xlink" width="18px" height="18px" viewBox="0 0 16 16" version="1.1">
<g id="surface1">
<path style=" stroke:none;fill-rule:nonzero;fill:rgb(90.588235%,53.333333%,24.705882%);fill-opacity:1;" d="M 8 3.753906 L 4.53125 0.398438 C 4.125 0.00390625 3.519531 -0.109375 2.996094 0.113281 C 2.472656 0.335938 2.132812 0.847656 2.132812 1.414062 L 2.132812 9.976562 C 2.132812 10.554688 2.367188 11.105469 2.78125 11.503906 L 7.015625 15.601562 C 7.566406 16.132812 8.4375 16.132812 8.984375 15.601562 L 13.21875 11.503906 C 13.632812 11.105469 13.867188 10.554688 13.867188 9.976562 L 13.867188 1.414062 C 13.867188 0.847656 13.527344 0.335938 13.003906 0.113281 C 12.480469 -0.109375 11.875 0.00390625 11.46875 0.398438 Z M 11.871094 9.730469 C 11.871094 9.921875 11.792969 10.105469 11.65625 10.242188 L 8 13.773438 L 8 6.53125 L 8.695312 5.859375 L 11.269531 3.367188 C 11.371094 3.269531 11.523438 3.242188 11.65625 3.296875 C 11.785156 3.351562 11.871094 3.480469 11.871094 3.621094 Z M 11.871094 9.730469 "/>
</g>
</svg>
